<svg width="24" height="24" viewBox="0 0 24 24" fill="none" xmlns="http://www.w3.org/2000/svg">
<path fill-rule="evenodd" clip-rule="evenodd" d="M3 4.97826C3 4.71881 3.10307 4.46998 3.28653 4.28653C3.46998 4.10307 3.71881 4 3.97826 4H20.2826C20.542 4 20.7909 4.10307 20.9743 4.28653C21.1578 4.46998 21.2609 4.71881 21.2609 4.97826C21.2609 5.23771 21.1578 5.48654 20.9743 5.67C20.7909 5.85345 20.542 5.95652 20.2826 5.95652H3.97826C3.71881 5.95652 3.46998 5.85345 3.28653 5.67C3.10307 5.48654 3 5.23771 3 4.97826ZM3 11.5C3 11.2406 3.10307 10.9917 3.28653 10.8083C3.46998 10.6248 3.71881 10.5217 3.97826 10.5217H20.2826C20.542 10.5217 20.7909 10.6248 20.9743 10.8083C21.1578 10.9917 21.2609 11.2406 21.2609 11.5C21.2609 11.7594 21.1578 12.0083 20.9743 12.1917C20.7909 12.3752 20.542 12.4783 20.2826 12.4783H3.97826C3.71881 12.4783 3.46998 12.3752 3.28653 12.1917C3.10307 12.0083 3 11.7594 3 11.5ZM3.97826 17.0435C3.71881 17.0435 3.46998 17.1465 3.28653 17.33C3.10307 17.5134 3 17.7623 3 18.0217C3 18.2812 3.10307 18.53 3.28653 18.7134C3.46998 18.897 3.71881 19 3.97826 19H20.2826C20.542 19 20.7909 18.897 20.9743 18.7134C21.1578 18.53 21.2609 18.2812 21.2609 18.0217C21.2609 17.7623 21.1578 17.5134 20.9743 17.33C20.7909 17.1465 20.542 17.0435 20.2826 17.0435H3.97826Z" fill="white"/>
</svg>
